<svg width="65" height="64" viewBox="0 0 65 64" fill="none" xmlns="http://www.w3.org/2000/svg">
<circle cx="32.5" cy="32" r="31.5" stroke="#E0DEF7"/>
<circle cx="32.5" cy="32" r="28" fill="#E0DEF7"/>
<rect x="34.1499" y="25" width="2" height="10" fill="#7065F0"/>
<rect x="22.5" y="32" width="2" height="10" fill="#7065F0"/>
<rect x="39.5" y="25" width="2" height="10" fill="#7065F0"/>
<path d="M23.1666 26.6667C20.9533 26.6667 19.1666 28.4534 19.1666 30.6667V41.3334C19.1666 43.5467 20.9533 45.3334 23.1666 45.3334H25.1666C26.6333 45.3334 27.8333 44.1334 27.8333 42.6667V29.3334C27.8333 27.8667 26.6333 26.6667 25.1666 26.6667H23.1666ZM24.5 38.6667C24.5 39.2134 24.0466 39.6667 23.5 39.6667C22.9533 39.6667 22.5 39.2134 22.5 38.6667V33.3334C22.5 32.7867 22.9533 32.3334 23.5 32.3334C24.0466 32.3334 24.5 32.7867 24.5 33.3334V38.6667Z" fill="white"/>
<path d="M41.8334 18.6667H33.8334C31.62 18.6667 29.8334 20.4534 29.8334 22.6667V41.3334C29.8334 43.5467 31.62 45.3334 33.8334 45.3334H34.5C34.8734 45.3334 35.1667 45.0401 35.1667 44.6667V40.0001C35.1667 39.2667 35.7667 38.6667 36.5 38.6667H39.1667C39.9 38.6667 40.5 39.2667 40.5 40.0001V44.6667C40.5 45.0401 40.7934 45.3334 41.1667 45.3334H41.8334C44.0467 45.3334 45.8334 43.5467 45.8334 41.3334V22.6667C45.8334 20.4534 44.0467 18.6667 41.8334 18.6667ZM36.1667 33.3334C36.1667 33.8801 35.7134 34.3334 35.1667 34.3334C34.62 34.3334 34.1667 33.8801 34.1667 33.3334V26.6667C34.1667 26.1201 34.62 25.6667 35.1667 25.6667C35.7134 25.6667 36.1667 26.1201 36.1667 26.6667V33.3334ZM41.5 33.3334C41.5 33.8801 41.0467 34.3334 40.5 34.3334C39.9534 34.3334 39.5 33.8801 39.5 33.3334V26.6667C39.5 26.1201 39.9534 25.6667 40.5 25.6667C41.0467 25.6667 41.5 26.1201 41.5 26.6667V33.3334Z" fill="white"/>
<rect x="40.5" y="40" width="24" height="24" rx="12" fill="#7065F0"/>
<path d="M52.1667 57.9999C55.6645 57.9999 58.5 55.1644 58.5 51.6666C58.5 48.1688 55.6645 45.3333 52.1667 45.3333C48.6689 45.3333 45.8334 48.1688 45.8334 51.6666C45.8334 55.1644 48.6689 57.9999 52.1667 57.9999Z" stroke="white" stroke-width="2" stroke-linecap="round" stroke-linejoin="round"/>
<path d="M59.1667 58.6666L57.8334 57.3333" stroke="white" stroke-width="2" stroke-linecap="round" stroke-linejoin="round"/>
</svg>
