<svg width="24" height="24" viewBox="0 0 24 24" fill="none" xmlns="http://www.w3.org/2000/svg">
<rect width="24" height="24" rx="12" fill="#F6F7F9"/>
<path d="M5.20697 10.4849C5.3945 10.2975 5.64881 10.1922 5.91397 10.1922C6.17914 10.1922 6.43344 10.2975 6.62097 10.4849L10.157 14.0209L17.227 6.94994C17.3198 6.85703 17.4301 6.78332 17.5514 6.73301C17.6727 6.6827 17.8028 6.65678 17.9341 6.65674C18.0655 6.65669 18.1955 6.68252 18.3169 6.73274C18.4383 6.78296 18.5486 6.8566 18.6415 6.94944C18.7344 7.04229 18.8081 7.15252 18.8584 7.27385C18.9087 7.39519 18.9346 7.52524 18.9347 7.65659C18.9347 7.78794 18.9089 7.91801 18.8587 8.03938C18.8085 8.16074 18.7348 8.27103 18.642 8.36394L10.157 16.8489L5.20697 11.8989C5.0195 11.7114 4.91418 11.4571 4.91418 11.1919C4.91418 10.9268 5.0195 10.6725 5.20697 10.4849Z" fill="#171717"/>
</svg>
