<svg width="56" height="85" viewBox="0 0 56 85" fill="none" xmlns="http://www.w3.org/2000/svg">
<circle cx="28" cy="77" r="8" fill="#CECBF6"/>
<circle cx="28" cy="28" r="28" fill="#7065F0"/>
<g clip-path="url(#clip0_38_2732)">
<path d="M34.9999 24.7099L29.6669 20.5619C29.1989 20.1978 28.6229 20.0002 28.0299 20.0002C27.437 20.0002 26.8609 20.1978 26.3929 20.5619L21.0589 24.7099C20.7384 24.9592 20.479 25.2784 20.3007 25.6433C20.1223 26.0081 20.0297 26.4088 20.0299 26.8149V34.0149C20.0299 34.5454 20.2406 35.0541 20.6157 35.4291C20.9908 35.8042 21.4995 36.0149 22.0299 36.0149H34.0299C34.5603 36.0149 35.0691 35.8042 35.4441 35.4291C35.8192 35.0541 36.0299 34.5454 36.0299 34.0149V26.8149C36.0299 25.9919 35.6499 25.2149 34.9999 24.7099Z" fill="white" stroke="white" stroke-width="3" stroke-linecap="round" stroke-linejoin="round"/>
<path d="M32.0001 31C29.7901 32.333 26.2081 32.333 24.0001 31" stroke="#7065F0" stroke-width="3" stroke-linecap="round" stroke-linejoin="round"/>
</g>
<path d="M29.732 61C28.9622 62.3333 27.0377 62.3333 26.2679 61L22.8038 55C22.034 53.6667 22.9963 52 24.5359 52L31.4641 52C33.0037 52 33.966 53.6667 33.1962 55L29.732 61Z" fill="#7065F0"/>
<defs>
<clipPath id="clip0_38_2732">
<rect width="24" height="24" fill="white" transform="translate(16 16)"/>
</clipPath>
</defs>
</svg>
