<svg width="58" height="58" viewBox="0 0 58 58" fill="none" xmlns="http://www.w3.org/2000/svg">
<circle cx="28.9187" cy="28.9186" r="28.4593" fill="#100A55"/>
<path d="M25.3613 40.7764H32.4761C38.4052 40.7764 40.7768 38.4048 40.7768 32.4758V25.3609C40.7768 19.4319 38.4052 17.0603 32.4761 17.0603H25.3613C19.4323 17.0603 17.0607 19.4319 17.0607 25.3609V32.4758C17.0607 38.4048 19.4323 40.7764 25.3613 40.7764Z" stroke="white" stroke-width="2.66806" stroke-linecap="round" stroke-linejoin="round"/>
<path d="M25.4797 28.9183V27.1633C25.4797 24.8984 27.0806 23.9854 29.0372 25.1119L30.555 25.9894L32.0728 26.8669C34.0294 27.9934 34.0294 29.8433 32.0728 30.9698L30.555 31.8473L29.0372 32.7248C27.0806 33.8513 25.4797 32.9264 25.4797 30.6733V28.9183Z" stroke="white" stroke-width="2.66806" stroke-miterlimit="10" stroke-linecap="round" stroke-linejoin="round"/>
</svg>
